<svg width="123" height="31" viewBox="0 0 123 31" fill="none" xmlns="http://www.w3.org/2000/svg">
<path d="M61.5209 23.1275C60.3496 23.1275 59.2172 22.9899 58.1238 22.7147C57.0304 22.4395 56.031 22.0138 55.129 21.4346C54.227 20.8586 53.5067 20.1129 52.9713 19.1945C52.436 18.2792 52.1699 17.1816 52.1699 15.9015H55.3756C55.3756 15.9783 55.4016 16.1767 55.4535 16.5031C55.5054 16.8296 55.6384 17.2072 55.8526 17.6328C56.0699 18.0584 56.4009 18.4744 56.8454 18.8745C57.2899 19.2777 57.9129 19.6073 58.7143 19.8729C59.5157 20.1353 60.528 20.2697 61.748 20.2697C62.663 20.2697 63.4385 20.1705 64.0744 19.9689C64.7103 19.7673 65.2198 19.5049 65.5994 19.1785C65.9822 18.8521 66.2548 18.5128 66.4203 18.1608C66.5857 17.8088 66.6669 17.4952 66.6669 17.22C66.6928 16.4423 66.4495 15.8151 65.9433 15.3383C65.4339 14.8615 64.759 14.4806 63.9219 14.1894C63.0816 13.9014 62.1666 13.6454 61.1737 13.4182C60.1809 13.191 59.188 12.9286 58.1984 12.6277C57.2056 12.3269 56.2971 11.9461 55.4697 11.4789C54.6423 11.0149 53.9934 10.394 53.5229 9.61639C53.0525 8.83875 52.8416 7.8595 52.8935 6.68184C52.9681 5.52658 53.3769 4.53773 54.1134 3.70889C54.85 2.88004 55.8688 2.24001 57.1666 1.78879C58.4645 1.33756 59.9375 1.11035 61.5923 1.11035C63.0945 1.11035 64.4735 1.37277 65.7324 1.90079C66.9913 2.42882 68.0101 3.21926 68.7856 4.27211C69.561 5.32497 69.9374 6.64344 69.9115 8.22432H66.7837C66.8096 7.37307 66.6312 6.66904 66.2483 6.11541C65.8654 5.56498 65.382 5.13616 64.798 4.83534C64.2107 4.53453 63.6007 4.32652 62.968 4.21451C62.3321 4.10251 61.7578 4.0449 61.2516 4.0449C59.8272 4.0449 58.6494 4.30732 57.7215 4.83534C56.7935 5.36337 56.3165 6.08981 56.2906 7.01786C56.2646 7.8211 56.508 8.45473 57.0141 8.91875C57.5203 9.38278 58.1984 9.754 59.0355 10.0292C59.8759 10.3044 60.8038 10.5572 61.8194 10.7813C62.835 11.0085 63.8408 11.2581 64.8336 11.5333C65.8265 11.8085 66.735 12.1797 67.5624 12.6437C68.3897 13.1078 69.0387 13.7286 69.5091 14.5062C69.9796 15.2839 70.1905 16.2887 70.1386 17.5176C70.0867 18.6985 69.6811 19.7001 68.9186 20.529C68.1561 21.3578 67.1373 21.9978 65.8654 22.4491C64.5935 22.9003 63.1432 23.1275 61.5144 23.1275H61.5209Z" fill="#113CFC"/>
<path d="M71.6313 29.7134V27.2301H73.8831C74.24 27.2301 74.558 27.1853 74.837 27.0989C75.1161 27.0093 75.3886 26.8045 75.6579 26.478C75.924 26.1516 76.2127 25.6492 76.5177 24.974L77.8545 22.113L71.7482 7.28345H75.0285L79.4152 18.836L84.1101 7.28345H87.4294L79.4152 25.31C78.9836 26.2636 78.5943 27.0349 78.2504 27.6237C77.9064 28.2125 77.5495 28.6573 77.1829 28.9614C76.813 29.2622 76.3944 29.4638 75.924 29.563C75.4535 29.6622 74.8987 29.7134 74.2627 29.7134H71.6313Z" fill="#113CFC"/>
<path d="M89.2979 22.6731V7.28027H92.046L92.5814 10.8549H92.6593C92.6852 10.7557 92.7858 10.5156 92.9643 10.1412C93.1427 9.7636 93.4347 9.35718 93.8403 8.91876C94.2459 8.48034 94.7942 8.09632 95.4821 7.7699C96.1699 7.44348 97.033 7.28027 98.0778 7.28027C99.1225 7.28027 100.067 7.44988 100.768 7.7891C101.468 8.12832 102.026 8.57954 102.445 9.14277C102.864 9.706 103.162 10.3396 103.341 11.0437C103.519 11.7477 103.633 12.4485 103.684 13.1526C103.736 13.8566 103.762 14.519 103.762 15.1463V22.6731H100.67V15.1463C100.67 14.167 100.57 13.303 100.365 12.5477C100.161 11.7957 99.7909 11.1941 99.2588 10.7429C98.7235 10.2916 97.922 10.0644 96.8546 10.0644C95.7871 10.0644 94.9402 10.314 94.3173 10.8165C93.6943 11.3189 93.2498 11.9717 92.9805 12.7718C92.7144 13.575 92.5781 14.4262 92.5781 15.3319V22.6699H89.2979V22.6731Z" fill="#113CFC"/>
<path d="M114.064 23.0507C112.614 23.0507 111.303 22.7563 110.135 22.1675C108.964 21.5787 108.036 20.6986 107.348 19.5338C106.66 18.3657 106.319 16.9544 106.319 15.2999C106.371 13.6454 106.731 12.215 107.406 11.0085C108.081 9.80525 109.003 8.8772 110.174 8.22437C111.345 7.57153 112.666 7.24512 114.142 7.24512C115.618 7.24512 116.884 7.52033 117.938 8.07396C118.993 8.62439 119.827 9.34763 120.437 10.2373C121.047 11.1269 121.417 12.087 121.543 13.1174H118.603C118.399 12.1126 117.916 11.3413 117.153 10.8037C116.391 10.2661 115.424 9.99406 114.252 9.99406C113.234 9.99406 112.371 10.2085 111.657 10.6341C110.943 11.0597 110.398 11.6581 110.015 12.423C109.632 13.1878 109.428 14.0743 109.405 15.0759C109.405 16.6568 109.824 17.9241 110.664 18.8777C111.504 19.8314 112.685 20.3082 114.213 20.3082C115.307 20.3082 116.261 20.033 117.075 19.4793C117.89 18.9289 118.399 18.1257 118.6 17.0696H121.54C121.413 18.1225 121.037 19.1017 120.414 20.0042C119.791 20.9066 118.944 21.6427 117.877 22.2059C116.809 22.7691 115.534 23.0539 114.061 23.0539L114.064 23.0507Z" fill="#113CFC"/>
<path d="M30.1425 29.7519C27.0536 30.1999 24.3444 29.1727 22.284 26.923C20.4346 27.979 19.153 29.5087 16.8688 29.7871C12.1544 30.3599 10.4185 28.5294 7.66381 25.3069C3.80921 20.7978 -1.39515 15.316 3.36145 9.41485C4.4192 8.10278 11.4827 2.5185 12.9817 1.88486C16.4729 0.406386 20.3827 1.45924 22.8129 4.27859C26.0672 1.08802 30.5448 -0.144042 34.5 2.72971C35.9633 3.79216 41.5668 10.7173 42.4558 12.391C43.7796 14.8839 43.812 18.0137 42.4558 20.5034C41.2391 22.7371 32.6733 29.3903 30.1457 29.7551L30.1425 29.7519ZM19.9739 17.8921L16.9045 20.0874C14.3218 16.9928 13.9778 12.7398 16.5313 9.51726C16.9856 8.94443 19.5358 6.97953 19.4709 6.62111C17.5144 4.6146 15.4931 4.91862 13.3419 6.37149C11.7066 7.47555 7.95907 10.3397 6.65473 11.6902C4.71121 13.6999 5.40231 15.86 6.80723 17.8793C7.77088 19.2618 12.3588 25.0285 13.5625 25.5597C15.081 26.2285 16.2847 26.0301 17.6799 25.2397C18.8026 24.606 24.5682 20.0394 25.2788 19.121C26.6188 17.3897 26.343 15.38 25.2172 13.6423L28.2314 11.0981C31.8881 15.668 30.0711 21.3259 25.4021 24.3436C26.8492 25.9181 28.7019 26.3277 30.6551 25.3965C31.7745 24.8652 37.0859 20.5994 38.0885 19.601C39.6946 17.9977 39.9347 15.9976 38.8121 14.0295C38.0853 12.7526 32.6668 6.16668 31.5734 5.60985C29.951 4.78101 28.6662 4.96662 27.138 5.88507C26.1192 6.4963 20.1783 11.2901 19.6202 12.0838C18.1017 14.2375 18.8155 15.8248 19.9706 17.8953L19.9739 17.8921Z" fill="#F3F5FF"/>
</svg>
