<svg width="42" height="29" viewBox="0 0 42 29" fill="none" xmlns="http://www.w3.org/2000/svg">
<path d="M28.6825 28.6384C25.5936 29.0864 22.8844 28.0591 20.8241 25.8094C18.9746 26.8655 17.693 28.3952 15.4088 28.6736C10.6944 29.2464 8.95852 27.4159 6.20385 24.1933C2.34925 19.6843 -2.85511 14.2024 1.90149 8.30133C2.95923 6.98926 10.0228 1.40497 11.5218 0.771337C15.013 -0.707139 18.9227 0.345715 21.3529 3.16506C24.6073 -0.0255039 29.0849 -1.25757 33.04 1.61618C34.5034 2.67864 40.1068 9.60379 40.9958 11.2775C42.3196 13.7704 42.3521 16.9002 40.9958 19.3899C39.7791 21.6236 31.2133 28.2768 28.6858 28.6416L28.6825 28.6384ZM18.5139 16.7786L15.4445 18.9739C12.8618 15.8793 12.5179 11.6263 15.0714 8.40373C15.5256 7.8309 18.0759 5.866 18.011 5.50758C16.0545 3.50108 14.0331 3.80509 11.8819 5.25797C10.2466 6.36203 6.49911 9.22617 5.19477 10.5766C3.25125 12.5863 3.94235 14.7465 5.34727 16.7658C6.31092 18.1482 10.8988 23.9149 12.1026 24.4462C13.621 25.115 14.8248 24.9166 16.22 24.1261C17.3426 23.4925 23.1083 18.9259 23.8188 18.0074C25.1589 16.2761 24.8831 14.2664 23.7572 12.5287L26.7714 9.98461C30.4281 14.5544 28.6111 20.2123 23.9421 23.2301C25.3892 24.8046 27.2419 25.2142 29.1952 24.2829C30.3146 23.7517 35.626 19.4859 36.6286 18.4875C38.2347 16.8842 38.4748 14.8841 37.3521 12.916C36.6253 11.6391 31.2068 5.05316 30.1134 4.49633C28.4911 3.66749 27.2062 3.8531 25.678 4.77154C24.6592 5.38277 18.7183 10.1766 18.1602 10.9703C16.6418 13.124 17.3556 14.7113 18.5107 16.7818L18.5139 16.7786Z" fill="#F3F5FF"/>
</svg>
