<svg width="271" height="36" viewBox="0 0 271 36" fill="none" xmlns="http://www.w3.org/2000/svg">
<path d="M200.76 27.8308C202.241 27.8308 203.489 26.5835 203.489 25.1023C203.489 23.6211 202.319 22.3738 200.76 22.3738C199.279 22.3738 198.11 23.6211 198.11 25.1023C198.11 26.5835 199.279 27.8308 200.76 27.8308Z" fill="white"/>
<path d="M46.0926 27.129C44.9232 26.6612 43.8318 25.8816 43.0522 24.9462C42.1947 24.0107 41.571 22.9193 41.1033 21.6719C40.6355 20.4246 40.4017 19.0993 40.4017 17.6181C40.4017 16.2149 40.6355 14.8117 41.0253 13.5644C41.4151 12.317 42.1167 11.2256 42.9743 10.2901C43.8318 9.35464 44.8452 8.65303 45.9366 8.10732C47.106 7.63958 48.4313 7.32775 49.9125 7.32775C51.1598 7.32775 52.2512 7.48366 53.2647 7.79549C54.2781 8.18528 55.1356 8.65303 55.9152 9.19873C56.6948 9.74443 57.2405 10.602 57.7082 11.4595C58.176 12.317 58.4878 13.3305 58.6437 14.3439H53.6545C53.4985 13.4864 53.1087 12.7848 52.4851 12.1611C51.8614 11.6154 51.0819 11.3036 50.1464 11.3036C48.5872 11.3036 47.4958 11.8493 46.7162 12.9407C45.9367 14.0321 45.5469 15.5133 45.5469 17.3843C45.5469 19.2553 45.9367 20.6585 46.7162 21.8279C47.4178 22.9972 48.6652 23.465 50.1464 23.465C51.2378 23.465 52.0953 23.1531 52.719 22.6854C53.3426 22.1397 53.8104 21.2822 53.9663 20.1907H58.9556C58.8776 21.2042 58.5658 22.2176 58.176 23.0752C57.7862 23.9327 57.1625 24.7123 56.383 25.4139C55.6813 26.0376 54.7459 26.6612 53.7324 26.9731C52.641 27.3628 51.5496 27.5188 50.3023 27.5188C48.6652 27.9085 47.3399 27.5967 46.0926 27.129Z" fill="white"/>
<path d="M66.6729 10.3683C67.3745 9.35487 68.1541 8.5753 69.0116 8.02959C69.8692 7.56185 70.9606 7.25002 72.2859 7.25002C73.2993 7.25002 74.2348 7.48389 74.9364 7.79572C75.716 8.18551 76.4176 8.65325 76.9633 9.27691C77.509 9.90057 77.9768 10.6802 78.2886 11.6156C78.6784 12.4732 78.7563 13.4866 78.7563 14.578V27.2851H73.6891V15.3576C73.6891 14.2662 73.3773 13.4087 72.8316 12.785C72.2859 12.1613 71.4283 11.7716 70.3369 11.7716C69.1675 11.7716 68.31 12.2393 67.6084 13.0189C66.9068 13.7985 66.439 14.8899 66.439 16.2931V27.3631H61.3718V0.155879H66.439V10.3683H66.6729Z" fill="white"/>
<path d="M87.1764 27.129C86.007 26.6612 84.9156 25.8817 84.0581 24.9462C83.2005 24.0107 82.5769 22.9193 82.1091 21.6719C81.7193 20.3467 81.4855 19.0993 81.4855 17.6181C81.4855 16.2149 81.7193 14.8117 82.1871 13.5644C82.6548 12.317 83.3564 11.2256 84.136 10.2901C84.9935 9.35464 86.007 8.65303 87.0984 8.10732C88.2678 7.63958 89.5151 7.32775 90.9183 7.32775C92.4775 7.32775 93.8028 7.63958 94.9721 8.18528C96.1415 8.73098 97.077 9.58852 97.9345 10.524C98.7141 11.5375 99.3377 12.8627 99.8055 14.188C100.195 15.5912 100.429 17.2284 100.429 18.9434H86.5527C86.7866 20.4246 87.2543 21.6719 88.0339 22.5295C88.8135 23.387 89.9828 23.8548 91.464 23.8548C92.4775 23.8548 93.257 23.6209 93.8807 23.2311C94.4264 22.7633 94.9721 22.2176 95.128 21.516H100.117C99.9614 22.3736 99.6496 23.1531 99.1818 23.9327C98.7141 24.7123 98.0904 25.3359 97.3888 25.9596C96.6872 26.5053 95.7517 27.051 94.7383 27.3628C93.7248 27.7526 92.6334 27.8306 91.3861 27.8306C89.9049 27.9085 88.5016 27.5967 87.1764 27.129ZM87.9559 12.395C87.2543 13.0966 86.7866 14.188 86.5527 15.4353H95.0501C94.9721 14.188 94.5823 13.1746 93.8807 12.395C93.1791 11.6154 92.1656 11.2256 91.0742 11.2256C89.671 11.3036 88.6576 11.6934 87.9559 12.395Z" fill="white"/>
<path d="M107.99 27.129C106.821 26.6612 105.73 25.8816 104.95 24.9462C104.093 24.0107 103.469 22.9193 103.001 21.6719C102.533 20.4246 102.3 19.0993 102.3 17.6181C102.3 16.2149 102.533 14.8117 102.923 13.5644C103.313 12.317 104.015 11.2256 104.872 10.2901C105.73 9.35464 106.743 8.65303 107.835 8.10732C109.004 7.63958 110.329 7.32775 111.81 7.32775C113.058 7.32775 114.149 7.48366 115.163 7.79549C116.176 8.18528 117.034 8.65303 117.813 9.19873C118.593 9.74443 119.138 10.602 119.606 11.4595C120.074 12.317 120.386 13.3305 120.542 14.3439H115.552C115.396 13.4864 115.007 12.7848 114.383 12.1611C113.759 11.6154 112.98 11.3036 112.044 11.3036C110.485 11.3036 109.394 11.8493 108.614 12.9407C107.835 14.0321 107.445 15.5133 107.445 17.3843C107.445 19.2553 107.835 20.6585 108.614 21.8279C109.316 22.9972 110.563 23.465 112.044 23.465C113.136 23.465 113.993 23.1531 114.617 22.6854C115.24 22.1397 115.708 21.2822 115.864 20.1907H120.775C120.698 21.2042 120.386 22.2176 119.996 23.0752C119.606 23.9327 118.982 24.7123 118.203 25.4139C117.501 26.0376 116.566 26.6612 115.552 26.9731C114.461 27.3628 113.369 27.5188 112.122 27.5188C110.563 27.9085 109.238 27.5967 107.99 27.129Z" fill="white"/>
<path d="M128.493 20.7367V27.2851H123.504V0.155879H128.493V15.2017L135.276 7.87368H141.356L134.262 15.2796L142.214 27.2851H136.055L130.676 18.3979L128.493 20.7367Z" fill="white"/>
<path d="M147.749 27.129C146.58 26.6612 145.488 25.8816 144.553 24.9462C143.695 24.0107 142.994 22.9193 142.526 21.6719C142.058 20.4246 141.824 19.0993 141.824 17.6181C141.824 16.2149 142.058 14.8117 142.526 13.5644C142.994 12.317 143.695 11.2256 144.553 10.2901C145.41 9.35464 146.502 8.65303 147.749 8.10732C148.918 7.63958 150.322 7.32775 151.803 7.32775C153.284 7.32775 154.609 7.63958 155.857 8.10732C157.026 8.57507 158.117 9.35464 159.053 10.2901C159.91 11.2256 160.612 12.317 161.08 13.5644C161.547 14.8117 161.781 16.137 161.781 17.6181C161.781 19.0214 161.547 20.4246 161.08 21.6719C160.612 22.9193 159.91 24.0107 159.053 24.9462C158.195 25.8816 157.104 26.5833 155.857 27.129C154.687 27.5967 153.284 27.9085 151.803 27.9085C150.322 27.9085 148.996 27.5967 147.749 27.129ZM155.389 22.2176C156.246 21.0483 156.636 19.5671 156.636 17.6181C156.636 15.6692 156.246 14.188 155.389 13.0186C154.531 11.8493 153.362 11.2256 151.803 11.2256C150.244 11.2256 149.074 11.7713 148.217 13.0186C147.359 14.188 146.969 15.7472 146.969 17.6181C146.969 19.4891 147.359 21.0483 148.217 22.2176C149.074 23.387 150.244 23.9327 151.803 23.9327C153.362 23.9327 154.609 23.387 155.389 22.2176Z" fill="white"/>
<path d="M176.672 25.0243H176.516C175.892 25.8818 175.112 26.5834 174.333 27.1291C173.475 27.5969 172.384 27.8307 171.059 27.8307C168.954 27.8307 167.317 27.2071 166.069 25.9598C164.9 24.6345 164.354 22.9974 164.354 20.8146V7.8736H169.343V19.957C169.343 21.1264 169.655 21.9839 170.123 22.5296C170.591 23.0753 171.448 23.4651 172.54 23.4651C173.709 23.4651 174.645 22.9974 175.346 22.2178C176.048 21.4382 176.438 20.3468 176.438 19.0215V7.8736H181.505V27.285H176.594L176.672 25.0243Z" fill="white"/>
<path d="M186.494 1.71503H191.483V7.87368H194.758V11.2259H191.483V21.5163C191.483 22.2179 191.639 22.7636 191.951 22.9974C192.341 23.3093 192.731 23.4652 193.354 23.4652H194.368C194.524 23.4652 194.758 23.4652 194.836 23.3872V27.2851C194.524 27.2851 194.368 27.3631 193.978 27.3631C193.666 27.3631 193.354 27.441 192.965 27.441H191.639C191.016 27.441 190.47 27.3631 189.768 27.2072C189.145 27.0512 188.599 26.8174 188.131 26.5055C187.664 26.1157 187.196 25.648 186.962 25.1023C186.728 24.5566 186.494 23.6991 186.494 22.7636V11.3038H183.844V7.95164H186.494V1.71503Z" fill="white"/>
<path d="M210.817 27.0512C209.726 26.5834 208.868 25.8038 208.089 24.8684C207.309 23.9329 206.763 22.8415 206.373 21.5941C205.984 20.3468 205.828 19.0215 205.828 17.4624C205.828 15.9812 206.062 14.6559 206.373 13.3306C206.763 12.0833 207.387 10.9919 208.089 10.0564C208.868 9.12092 209.804 8.4193 210.817 7.8736C211.908 7.40586 213.156 7.09403 214.559 7.09403C216.664 7.09403 218.457 7.63973 219.782 8.73113C221.107 9.82254 221.965 11.3817 222.355 13.4086H220.094C219.782 12.0054 219.236 10.836 218.223 10.1344C217.288 9.43275 216.118 9.04296 214.637 9.04296C213.468 9.04296 212.61 9.27684 211.753 9.66663C210.973 10.1344 210.271 10.6801 209.804 11.4596C209.336 12.1613 208.868 13.0968 208.634 14.1102C208.322 15.1237 208.244 16.2151 208.244 17.3844C208.244 18.5538 208.4 19.6452 208.634 20.6586C208.946 21.6721 209.258 22.5296 209.804 23.3092C210.271 24.0888 210.973 24.7124 211.753 25.1022C212.532 25.57 213.546 25.7259 214.559 25.7259C216.196 25.7259 217.521 25.2581 218.535 24.3226C219.548 23.3872 220.094 22.0619 220.328 20.5027H222.511C222.277 22.7635 221.497 24.4786 220.094 25.8038C218.769 27.1291 216.898 27.7528 214.559 27.7528C213.156 27.8307 211.908 27.5189 210.817 27.0512Z" fill="white"/>
<path d="M229.682 27.0512C228.513 26.5834 227.655 25.8038 226.876 24.8684C226.096 23.9329 225.551 22.8415 225.083 21.5941C224.693 20.3468 224.459 19.0215 224.459 17.4624C224.459 15.9812 224.693 14.6559 225.083 13.3306C225.473 12.0833 226.096 10.9919 226.876 10.0564C227.655 9.12092 228.591 8.4193 229.682 7.8736C230.774 7.3279 232.021 7.09403 233.424 7.09403C234.828 7.09403 236.075 7.40586 237.166 7.8736C238.258 8.34135 239.193 9.12092 239.973 10.0564C240.752 10.9919 241.298 12.0833 241.766 13.3306C242.156 14.578 242.311 15.9032 242.311 17.4624C242.311 18.9436 242.078 20.2689 241.766 21.5941C241.376 22.8415 240.752 23.9329 239.973 24.8684C239.193 25.8038 238.258 26.5055 237.166 27.0512C236.075 27.5189 234.828 27.8307 233.424 27.8307C232.099 27.8307 230.852 27.5189 229.682 27.0512ZM236.309 25.2581C237.166 24.7904 237.79 24.2447 238.336 23.4651C238.881 22.6855 239.349 21.828 239.505 20.8146C239.817 19.8011 239.895 18.7097 239.895 17.5403C239.895 16.371 239.739 15.2796 239.505 14.2661C239.193 13.2527 238.803 12.3951 238.336 11.6156C237.79 10.836 237.166 10.2123 236.309 9.82254C235.451 9.3548 234.516 9.19888 233.502 9.19888C232.411 9.19888 231.475 9.43275 230.696 9.82254C229.916 10.2903 229.215 10.836 228.669 11.6156C228.123 12.3951 227.655 13.2527 227.422 14.2661C227.11 15.2796 227.032 16.371 227.032 17.5403C227.032 18.7097 227.188 19.8011 227.422 20.8146C227.733 21.828 228.123 22.6855 228.669 23.4651C229.215 24.2447 229.916 24.8684 230.696 25.2581C231.475 25.7259 232.489 25.8818 233.502 25.8818C234.516 25.8818 235.529 25.6479 236.309 25.2581Z" fill="white"/>
<path d="M248.003 7.63981V10.6022H248.08C248.704 9.58875 249.484 8.80917 250.419 8.18551C251.355 7.56185 252.524 7.25002 253.927 7.25002C255.097 7.25002 256.188 7.56185 257.124 8.10755C258.059 8.65325 258.683 9.58875 259.072 10.7581H259.15C259.774 9.58875 260.632 8.73121 261.723 8.10755C262.814 7.48389 263.984 7.17206 265.309 7.17206C266.167 7.17206 266.868 7.32798 267.57 7.63981C268.271 7.95164 268.895 8.26347 269.441 8.80917C269.909 9.27692 270.376 9.97853 270.61 10.7581C270.922 11.5377 271 12.3952 271 13.3307V27.3631H268.739V13.5646C268.739 12.1613 268.349 11.0699 267.57 10.2904C266.79 9.58874 265.777 9.27691 264.685 9.27691C263.984 9.27691 263.282 9.43283 262.737 9.6667C262.113 9.97853 261.567 10.2904 261.099 10.7581C260.71 11.2259 260.242 11.8495 259.93 12.4732C259.618 13.1748 259.54 13.8764 259.54 14.8119V27.3631H257.202V13.5646C257.202 12.1613 256.812 11.0699 256.032 10.2904C255.331 9.58874 254.395 9.27691 253.304 9.27691C252.602 9.27691 251.978 9.43283 251.355 9.74466C250.731 10.0565 250.185 10.3683 249.562 10.914C249.094 11.3818 248.626 12.0054 248.392 12.707C248.08 13.3307 248.003 14.1103 248.003 14.9678V27.3631H245.664V7.63981H248.003Z" fill="white"/>
<path d="M21.3019 17.6964L30.345 1.55915C30.5789 1.16936 30.5789 0.857532 30.345 0.467744C30.1111 0.155914 29.7993 0 29.4095 0H10.6997C10.3099 0 9.99806 0.233871 9.76418 0.467744L0.175405 17.0727C-0.0584682 17.4625 -0.0584682 17.8523 0.175405 18.1641L9.76418 34.7691C9.99806 35.1589 10.3099 35.2368 10.6997 35.2368H29.4095C29.7993 35.2368 30.1111 35.0029 30.345 34.7691C30.5789 34.3793 30.5789 34.0675 30.345 33.6777L21.3019 17.6964ZM20.0546 15.5136L12.5707 2.10485H27.6165L20.0546 15.5136ZM10.6217 3.19626L18.7293 17.6964L10.6217 32.1185L2.28026 17.6964L10.6217 3.19626ZM12.5707 33.132L20.0546 19.7233L27.5385 33.132H12.5707Z" fill="white"/>
</svg>
