<svg width="25" height="20" viewBox="0 0 25 20" fill="none" xmlns="http://www.w3.org/2000/svg">
<g clip-path="url(#clip0_32_447)">
<path d="M12.5001 1.25C12.1837 1.25 11.8712 1.30469 11.5743 1.41016L0.617301 5.36719C0.246207 5.50391 0.000112979 5.85547 0.000112979 6.25C0.000112979 6.64453 0.246207 6.99609 0.617301 7.13281L2.87902 7.94922C2.23839 8.95703 1.87511 10.1484 1.87511 11.4023V12.5C1.87511 13.6094 1.45324 14.7539 1.00402 15.6562C0.750113 16.1641 0.461051 16.6641 0.125113 17.125C0.000112981 17.293 -0.0350433 17.5117 0.0352692 17.7109C0.105582 17.9102 0.269644 18.0586 0.472769 18.1094L2.97277 18.7344C3.13683 18.7773 3.31261 18.7461 3.45714 18.6562C3.60168 18.5664 3.70324 18.418 3.73449 18.25C4.07043 16.5781 3.90246 15.0781 3.65246 14.0039C3.52746 13.4492 3.35949 12.8828 3.12511 12.3633V11.4023C3.12511 10.2227 3.52355 9.10937 4.21496 8.21875C4.71886 7.61328 5.37121 7.125 6.13683 6.82422L12.2696 4.41406C12.59 4.28906 12.9532 4.44531 13.0782 4.76562C13.2032 5.08594 13.047 5.44922 12.7267 5.57422L6.59386 7.98438C6.10949 8.17578 5.68371 8.46875 5.33605 8.82812L11.5704 11.0781C11.8673 11.1836 12.1798 11.2383 12.4962 11.2383C12.8126 11.2383 13.1251 11.1836 13.422 11.0781L24.3829 7.13281C24.754 7 25.0001 6.64453 25.0001 6.25C25.0001 5.85547 24.754 5.50391 24.3829 5.36719L13.4259 1.41016C13.129 1.30469 12.8165 1.25 12.5001 1.25ZM5.00011 15.9375C5.00011 17.3164 8.35949 18.75 12.5001 18.75C16.6407 18.75 20.0001 17.3164 20.0001 15.9375L19.4025 10.2578L13.8478 12.2656C13.4142 12.4219 12.9571 12.5 12.5001 12.5C12.0431 12.5 11.5821 12.4219 11.1525 12.2656L5.59777 10.2578L5.00011 15.9375Z" fill="#030C32"/>
</g>
<defs>
<clipPath id="clip0_32_447">
<path d="M0 0H25V20H0V0Z" fill="white"/>
</clipPath>
</defs>
</svg>
