<svg width="270" height="40" viewBox="0 0 270 40" fill="none" xmlns="http://www.w3.org/2000/svg">
<path d="M6.94564 21.0008L0.704333 32.0823C-0.444922 34.1115 -0.168802 36.5649 1.39401 38.2633C2.40521 39.3485 3.69252 39.9144 5.02524 39.9144C5.80695 39.9144 6.63407 39.726 7.36977 39.3485L20.085 32.6893L12.5999 28.7695C9.94315 27.374 8.05882 24.9747 7.21865 22.142C7.10671 21.7639 7.01591 21.3833 6.94564 21.0008Z" fill="white"/>
<path d="M23.0966 0.000384646C25.6706 0.000384646 28.0152 1.36854 29.3019 3.68074L45.2982 32.0831C46.4474 34.1117 46.1713 36.5651 44.6085 38.2635C43.5973 39.3487 42.3106 39.9146 40.9773 39.9146C40.1962 39.9146 39.3684 39.7262 38.6333 39.3487L13.8572 26.3742C11.8808 25.3362 10.4561 23.5433 9.81241 21.3729C9.16875 19.2025 9.44487 16.8909 10.5481 14.9096L16.8454 3.68074C18.1781 1.36854 20.4766 0.000384646 23.0966 0.000384646Z" fill="white"/>
<path d="M88.5039 6.57006V24.7343L70.9479 3.93635C70.7452 3.70003 70.4411 3.63287 70.1712 3.73424L66.0524 5.42205C65.7819 5.52342 65.6133 5.75974 65.6133 6.06384V36.0104C65.6133 36.3816 65.9174 36.6858 66.2887 36.6858H71.4541C71.8254 36.6858 72.1295 36.3816 72.1295 36.0104V15.4158L89.8547 36.4494C89.9896 36.618 90.1581 36.6858 90.3609 36.6858H94.3447C94.716 36.6858 95.0201 36.3816 95.0201 36.0104V4.54456C95.0201 4.07192 94.5475 3.73424 94.1084 3.90277L88.943 5.92889C88.6724 6.06384 88.5039 6.30016 88.5039 6.57006Z" fill="white"/>
<path d="M114.758 29.5284C113.543 30.7436 111.989 31.3853 110.166 31.3853C108.343 31.3853 106.824 30.7778 105.609 29.5284C104.393 28.3126 103.785 26.7261 103.785 24.8356C103.785 22.945 104.393 21.3916 105.609 20.1422C106.824 18.927 108.343 18.2858 110.166 18.2858C111.989 18.2858 113.543 18.8934 114.758 20.1422C115.974 21.358 116.615 22.945 116.615 24.8356C116.615 26.7261 115.974 28.279 114.758 29.5284ZM110.166 12.3437C106.655 12.3437 103.718 13.5588 101.287 15.9562C98.856 18.3866 97.6745 21.3244 97.6745 24.8356C97.6745 28.3468 98.8896 31.284 101.287 33.715C103.718 36.1459 106.655 37.3275 110.166 37.3275C113.678 37.3275 116.648 36.1117 119.079 33.715C121.51 31.284 122.725 28.3468 122.725 24.8356C122.725 21.3244 121.51 18.3866 119.079 15.9562C116.615 13.5588 113.678 12.3437 110.166 12.3437Z" fill="white"/>
<path d="M126.057 36.6852H130.817C131.189 36.6852 131.493 36.3817 131.493 36.0098V25.5042C131.493 23.2418 132.235 21.2959 133.687 20.3164C134.97 19.4725 136.388 19.0677 137.975 19.1348C138.346 19.1348 138.684 18.8313 138.684 18.4601V13.2206C138.684 12.8152 138.346 12.5117 137.975 12.5453C136.658 12.6466 135.442 13.0179 134.329 13.6597C133.012 14.4022 132.066 15.5502 131.526 17.0695V14.031C131.526 13.5583 131.054 13.2206 130.615 13.3892L125.821 15.2803C125.551 15.3817 125.382 15.618 125.382 15.9215V36.0098C125.382 36.3817 125.686 36.6852 126.057 36.6852Z" fill="white"/>
<path d="M141.336 12.9195H143.43V8.79205C143.43 8.48857 143.598 8.25225 143.869 8.15088L148.628 6.25971C149.068 6.09118 149.54 6.42886 149.54 6.9015V12.9195H155.769C156.141 12.9195 156.445 13.2236 156.445 13.5949V18.2168C156.445 18.5881 156.141 18.8916 155.769 18.8916H149.54V27.5452C149.54 29.9873 151.094 31.1266 152.884 31.1266C153.749 31.1266 154.679 30.9482 155.398 30.7355C155.885 30.5912 156.465 30.9569 156.465 31.4631V36.2106C156.465 36.4818 156.298 36.7262 156.038 36.8082C155.38 37.016 154.349 37.3132 152.884 37.3132C148.977 37.3132 143.43 34.5452 143.43 28.0334V18.8916H141.336C140.965 18.8916 140.661 18.5881 140.661 18.2168V13.5949C140.661 13.2236 140.965 12.9195 141.336 12.9195Z" fill="white"/>
<path d="M208.33 27.8735C206.271 29.899 203.738 30.912 200.7 30.912C197.661 30.912 195.129 29.899 193.07 27.8735C191.009 25.848 189.997 23.2478 189.997 20.0743C189.997 16.9344 191.009 14.3013 193.07 12.2752C195.129 10.2161 197.661 9.20306 200.7 9.20306C203.738 9.20306 206.271 10.2161 208.33 12.2752C210.389 14.3349 211.403 16.9344 211.403 20.0743C211.403 23.2478 210.389 25.848 208.33 27.8735ZM200.7 2.85604C195.906 2.85604 191.855 4.51027 188.512 7.85231C185.169 11.195 183.516 15.2466 183.516 20.0743C183.516 24.9027 185.169 28.9879 188.512 32.2964C191.855 35.6384 195.906 37.2933 200.7 37.2933C205.494 37.2933 209.58 35.6384 212.921 32.2964C216.264 28.9537 217.952 24.9027 217.952 20.0743C217.952 15.2466 216.264 11.1614 212.921 7.85231C209.58 4.54385 205.494 2.85604 200.7 2.85604Z" fill="white"/>
<path d="M233.724 12.3429C230.516 12.3429 228.153 13.4573 226.667 15.6513V14.0307C226.667 13.558 226.194 13.221 225.757 13.3895L220.996 15.2465C220.726 15.3478 220.557 15.5842 220.557 15.8876V35.976C220.557 36.3479 220.86 36.6513 221.232 36.6513H225.992C226.364 36.6513 226.667 36.3479 226.667 35.976V23.8895C226.667 21.9312 227.141 20.4797 228.086 19.5002C229.031 18.5213 230.28 18.0487 231.866 18.0487C233.285 18.0487 234.432 18.4536 235.276 19.2981C236.122 20.142 236.559 21.3572 236.559 22.9107V36.0102C236.559 36.3814 236.865 36.6855 237.235 36.6855H241.996C242.367 36.6855 242.671 36.3814 242.671 36.0102V22.1675C242.671 19.0953 241.827 16.698 240.139 14.9759C238.451 13.221 236.324 12.3429 233.724 12.3429Z" fill="white"/>
<path d="M251.521 22.6072C251.859 21.0879 252.567 19.9063 253.648 19.096C254.729 18.2521 256.078 17.8466 257.734 17.8466C259.118 17.8466 260.366 18.2521 261.447 19.0282C262.527 19.8049 263.271 21.0201 263.608 22.6408H251.521V22.6072ZM269.72 24.8354C269.72 21.2906 268.605 18.3192 266.342 15.9225C264.08 13.5251 261.21 12.3099 257.766 12.3099C254.121 12.3099 251.116 13.4915 248.786 15.8883C246.457 18.2857 245.274 21.2564 245.274 24.8018C245.274 28.4144 246.457 31.3852 248.82 33.7484C251.184 36.1122 254.324 37.2938 258.24 37.2938C262.493 37.2938 265.769 35.8081 268.098 32.8373C268.335 32.4996 268.267 32.027 267.896 31.8242L264.115 29.6296C263.845 29.461 263.507 29.5282 263.271 29.7645C262.088 31.0817 260.434 31.7229 258.307 31.7229C254.66 31.7229 252.466 30.2372 251.623 27.2664H268.908C269.246 27.2664 269.516 26.9965 269.584 26.6924C269.651 26.0848 269.72 25.443 269.72 24.8354Z" fill="white"/>
<path d="M159.121 2.57631V36.0104C159.121 36.3817 159.424 36.6858 159.797 36.6858H164.556C164.929 36.6858 165.232 36.3817 165.232 36.0104V23.8898C165.232 21.9314 165.704 20.4799 166.651 19.5005C167.595 18.5216 168.844 18.049 170.431 18.049C171.849 18.049 172.997 18.4538 173.841 19.2983C174.685 20.1423 175.124 21.3574 175.124 22.9109V36.0104C175.124 36.3817 175.428 36.6858 175.799 36.6858H180.559C180.931 36.6858 181.235 36.3817 181.235 36.0104V22.1677C181.235 19.0956 180.391 16.6982 178.703 14.9768C177.015 13.2548 174.887 12.3767 172.288 12.3767C169.081 12.3767 166.717 13.4911 165.232 15.6858V0.685766C165.232 0.213128 164.759 -0.124559 164.32 0.043973L159.56 1.93452C159.289 2.03589 159.121 2.27221 159.121 2.57631Z" fill="white"/>
</svg>
