<svg width="177" height="40" viewBox="0 0 177 40" fill="none" xmlns="http://www.w3.org/2000/svg">
<path d="M114.421 14.5657C111.447 11.9321 107.859 10.645 103.709 10.645C99.6167 10.645 96.0276 11.9342 93.0526 14.5657C90.0795 17.1422 88.5687 20.7285 88.5687 25.3225C88.5687 29.9165 90.0795 33.5005 93.0526 36.1344C96.0257 38.7107 99.6167 40 103.709 40C107.859 40 111.447 38.7107 114.421 36.1344C117.451 33.5005 118.962 29.9165 118.962 25.3225C118.962 20.7285 117.449 17.1422 114.421 14.5657ZM98.1038 31.2036C96.5358 29.6921 95.7463 27.7296 95.7463 25.3225C95.7463 22.9133 96.5294 20.9529 98.1038 19.4963C99.6718 17.9848 101.525 17.2565 103.707 17.2565C105.891 17.2565 107.799 17.9848 109.37 19.4963C110.993 20.9529 111.782 22.9133 111.782 25.3225C111.782 27.7317 110.999 29.6921 109.37 31.2036C107.802 32.6602 105.893 33.3885 103.707 33.3885C101.525 33.3885 99.6759 32.6602 98.1038 31.2036Z" fill="white"/>
<path d="M129.565 39.2136V0.772186H122.5V39.2136H129.565Z" fill="white"/>
<path d="M152.372 11.4275V26.7655C152.372 30.4619 150.372 32.9114 146.565 32.9114C142.695 32.9114 140.748 30.464 140.748 26.7655V11.4275H133.67V27.9426C133.67 34.3402 137.707 39.9972 146.565 39.9972H146.62C155.423 39.9972 159.454 34.2154 159.454 27.9426V11.4275H152.372Z" fill="white"/>
<path d="M81.0467 11.4275L73.9811 30.2502L66.9155 11.4275H59.4012L70.6758 39.2138H77.295L88.5673 11.4275H81.0467Z" fill="white"/>
<path d="M59.4376 24.5371C59.4376 20.5041 58.1489 17.1994 55.6245 14.5657C53.1 11.9321 49.8517 10.645 45.8693 10.645C41.7768 10.645 38.2981 12.0464 35.4373 14.7901C32.6312 17.536 31.2325 21.0079 31.2325 25.3225C31.2325 29.637 32.6334 33.1661 35.3822 35.9098C38.188 38.6557 41.5525 40 45.5329 40C51.6485 40 55.9653 37.3114 58.5953 31.8769L53.3265 28.8516C51.5912 32.2685 49.0648 33.9495 45.6449 33.9495C41.4405 33.9495 38.4673 31.2608 38.0187 27.0034H59.4356V24.5371H59.4376ZM45.6408 16.0223C49.6213 16.0223 52.26 18.2621 52.9307 21.8484H38.0145C39.083 18.5437 41.9947 16.0223 45.6408 16.0223Z" fill="white"/>
<path d="M31.2332 39.2143L21.7532 22.6334C27.7502 20.4486 30.7233 16.64 30.7233 11.0933C30.7296 4.31455 25.3421 0 16.7635 0H0V39.2143H7.40201V23.3045H13.6846L22.7668 39.2143H31.2332ZM16.7635 6.49723C21.1374 6.49723 23.3255 8.23323 23.3255 11.6501C23.3255 15.0671 21.1353 16.803 16.7635 16.803H7.40201V6.49723H16.7635Z" fill="white"/>
<path d="M171.432 39.9974C166.885 39.9974 163.196 36.3117 163.196 31.7623V3.92093H170.262V11.4386H176.32V17.1525H170.262V31.3092C170.262 32.6429 171.343 33.7226 172.68 33.7226H176.32V39.9974H171.432Z" fill="white"/>
</svg>
